<svg width="110" height="110" viewBox="0 0 110 110" fill="none" xmlns="http://www.w3.org/2000/svg">
    <circle cx="55" cy="55" r="55" fill="url(#paint0_linear_647_1122)"/>
    <path d="M34.1636 76.4C30.953 76.4 28.0596 75.7467 25.4836 74.44C22.945 73.096 20.929 71.0427 19.4356 68.28C17.9423 65.5173 17.1956 62.0267 17.1956 57.808C17.1956 55.7547 17.5503 53.6453 18.2596 51.48C18.969 49.3147 19.9956 47.224 21.3396 45.208C22.721 43.1547 24.4196 41.3253 26.4356 39.72C28.489 38.0773 30.8596 36.7893 33.5476 35.856C36.2356 34.8853 39.2223 34.4 42.5076 34.4C44.5236 34.4 46.3343 34.68 47.9396 35.24C49.5823 35.8 50.8703 36.64 51.8036 37.76C52.737 38.8427 53.2036 40.2053 53.2036 41.848C53.2036 43.4533 52.8303 44.7973 52.0836 45.88C51.3743 46.9627 50.4223 47.784 49.2276 48.344C48.0703 48.8667 46.801 49.128 45.4196 49.128C43.777 49.128 42.1716 48.7173 40.6036 47.896C39.0356 47.0747 37.7663 45.8613 36.7956 44.256C35.489 44.8907 34.257 45.9733 33.0996 47.504C31.9796 48.9973 31.0836 50.752 30.4116 52.768C29.7396 54.784 29.4036 56.8747 29.4036 59.04C29.4036 60.5707 29.5903 62.008 29.9636 63.352C30.3743 64.6587 30.9903 65.7227 31.8116 66.544C32.633 67.3653 33.6783 67.776 34.9476 67.776C35.993 67.776 37.001 67.384 37.9716 66.6C38.9423 65.7787 39.745 64.696 40.3796 63.352C41.0143 62.008 41.3316 60.496 41.3316 58.816C43.609 58.816 45.513 58.928 47.0436 59.152C48.6116 59.3387 49.8063 59.768 50.6276 60.44C51.449 61.112 51.8596 62.1573 51.8596 63.576C51.8596 64.9947 51.449 66.4507 50.6276 67.944C49.8063 69.4373 48.6116 70.8373 47.0436 72.144C45.513 73.4133 43.6463 74.44 41.4436 75.224C39.2783 76.008 36.8516 76.4 34.1636 76.4ZM70.7662 76.4C66.9955 76.4 64.3262 75.8773 62.7582 74.832C61.1902 73.7493 60.4062 71.9947 60.4062 69.568C60.4062 67.2533 60.4062 65.312 60.4062 63.744C60.4435 62.1387 60.4622 60.6453 60.4622 59.264C60.4622 57.136 60.3875 54.9893 60.2382 52.824C60.0889 50.6587 59.7902 48.5867 59.3422 46.608C58.8942 44.6293 58.2222 42.8373 57.3262 41.232C56.4302 39.6267 55.2355 38.32 53.7422 37.312C56.2809 35.3707 59.1929 34.4 62.4782 34.4C64.7555 34.4 66.5662 35.0533 67.9102 36.36C69.2542 37.6667 70.2622 39.4213 70.9342 41.624C71.6062 43.7893 72.0355 46.1973 72.2222 48.848C72.4462 51.4613 72.5582 54.0933 72.5582 56.744C72.5582 58.4613 72.5209 60.1227 72.4462 61.728C72.4089 63.3333 72.3902 64.808 72.3902 66.152H73.8462C74.7049 64.2853 75.6195 62.176 76.5902 59.824C77.5609 57.472 78.4755 55.0827 79.3342 52.656C80.1929 50.2293 80.8835 47.9333 81.4062 45.768C81.9662 43.6027 82.2462 41.792 82.2462 40.336C82.2462 39.7013 82.1902 39.1413 82.0782 38.656C81.9662 38.1333 81.8169 37.6853 81.6302 37.312C83.0489 36.3413 84.3742 35.6133 85.6062 35.128C86.8755 34.6427 88.1635 34.4 89.4702 34.4C91.5235 34.4 92.9609 34.9973 93.7822 36.192C94.6409 37.3493 95.0702 38.8613 95.0702 40.728C95.0702 42.1093 94.8089 43.7333 94.2862 45.6C93.7635 47.4667 93.0729 49.4453 92.2142 51.536C91.3929 53.6267 90.5155 55.7173 89.5822 57.808C88.6489 59.8613 87.7342 61.8027 86.8382 63.632C85.9795 65.4613 85.2702 67.048 84.7102 68.392L85.4942 71.472C84.4489 72.3307 83.1235 73.1333 81.5182 73.88C79.9502 74.6267 78.2329 75.224 76.3662 75.672C74.5369 76.1573 72.6702 76.4 70.7662 76.4Z" fill="white"/>
    <defs>
        <linearGradient id="paint0_linear_647_1122" x1="55" y1="0" x2="55" y2="110" gradientUnits="userSpaceOnUse">
            <stop stop-color="#F29AFF"/>
            <stop offset="1" stop-color="#A1C6FF"/>
        </linearGradient>
    </defs>
</svg>
